<svg xmlns="http://www.w3.org/2000/svg" width="540" height="54" viewBox="0 0 540 54">
  <defs>
    <style>
      .terminal-text { font-family: 'Cascadia Code', 'Fira Code', 'JetBrains Mono', Consolas, monospace; font-size: 14px; }
      .cursor { fill: #ffffff; opacity: 0.7; }
      @keyframes blink { 0%, 49% { opacity: 1; } 50%, 100% { opacity: 0.3; } }
      .blink { animation: blink 1s infinite; }
      .cell-grid { stroke: rgba(128, 128, 128, 0.5); stroke-width: 0.5; vector-effect: non-scaling-stroke; }
      .pixel-grid { stroke: rgba(64, 64, 64, 0.3); stroke-width: 0.25; vector-effect: non-scaling-stroke; }
      /* Cell group highlighting for related cells (hyperlinks, etc.) */
      .cell { pointer-events: bounding-box; }
      .cell.highlight > rect.cell-bg { stroke: #ff6b6b; stroke-width: 2; }
      .cell.highlight > text { fill: #ff6b6b !important; }
    </style>
  </defs>
  <rect width="540" height="54" fill="#0f0f1a"/>
  <g class="terminal-text">
    <g class="cell" data-x="29" data-y="1">
      <rect class="cell-bg" x="261" y="18" width="9" height="18" fill="#0f0f1a"/>
    </g>
    <g class="cell" data-x="55" data-y="1">
      <rect class="cell-bg" x="495" y="18" width="9" height="18" fill="#0f0f1a"/>
    </g>
    <g class="cell" data-x="56" data-y="1">
      <rect class="cell-bg" x="504" y="18" width="9" height="18" fill="#0f0f1a"/>
    </g>
    <g class="cell" data-x="57" data-y="1">
      <rect class="cell-bg" x="513" y="18" width="9" height="18" fill="#0f0f1a"/>
    </g>
    <g class="cell" data-x="58" data-y="1">
      <rect class="cell-bg" x="522" y="18" width="9" height="18" fill="#0f0f1a"/>
    </g>
    <g class="cell" data-x="59" data-y="1">
      <rect class="cell-bg" x="531" y="18" width="9" height="18" fill="#0f0f1a"/>
    </g>
    <g class="cell" data-x="0" data-y="2">
      <rect class="cell-bg" x="0" y="36" width="9" height="18" fill="#0f0f1a"/>
    </g>
    <g class="cell" data-x="1" data-y="2">
      <rect class="cell-bg" x="9" y="36" width="9" height="18" fill="#0f0f1a"/>
    </g>
    <g class="cell" data-x="2" data-y="2">
      <rect class="cell-bg" x="18" y="36" width="9" height="18" fill="#0f0f1a"/>
    </g>
    <g class="cell" data-x="54" data-y="1">
      <rect class="cell-bg" x="486" y="18" width="9" height="18" fill="#0f0f1a"/>
    </g>
    <g class="cell" data-x="3" data-y="2">
      <rect class="cell-bg" x="27" y="36" width="9" height="18" fill="#0f0f1a"/>
    </g>
    <g class="cell" data-x="5" data-y="2">
      <rect class="cell-bg" x="45" y="36" width="9" height="18" fill="#0f0f1a"/>
    </g>
    <g class="cell" data-x="6" data-y="2">
      <rect class="cell-bg" x="54" y="36" width="9" height="18" fill="#0f0f1a"/>
    </g>
    <g class="cell" data-x="7" data-y="2">
      <rect class="cell-bg" x="63" y="36" width="9" height="18" fill="#0f0f1a"/>
    </g>
    <g class="cell" data-x="8" data-y="2">
      <rect class="cell-bg" x="72" y="36" width="9" height="18" fill="#0f0f1a"/>
    </g>
    <g class="cell" data-x="9" data-y="2">
      <rect class="cell-bg" x="81" y="36" width="9" height="18" fill="#0f0f1a"/>
    </g>
    <g class="cell" data-x="10" data-y="2">
      <rect class="cell-bg" x="90" y="36" width="9" height="18" fill="#0f0f1a"/>
    </g>
    <g class="cell" data-x="11" data-y="2">
      <rect class="cell-bg" x="99" y="36" width="9" height="18" fill="#0f0f1a"/>
    </g>
    <g class="cell" data-x="12" data-y="2">
      <rect class="cell-bg" x="108" y="36" width="9" height="18" fill="#0f0f1a"/>
    </g>
    <g class="cell" data-x="4" data-y="2">
      <rect class="cell-bg" x="36" y="36" width="9" height="18" fill="#0f0f1a"/>
    </g>
    <g class="cell" data-x="53" data-y="1">
      <rect class="cell-bg" x="477" y="18" width="9" height="18" fill="#0f0f1a"/>
    </g>
    <g class="cell" data-x="52" data-y="1">
      <rect class="cell-bg" x="468" y="18" width="9" height="18" fill="#0f0f1a"/>
    </g>
    <g class="cell" data-x="51" data-y="1">
      <rect class="cell-bg" x="459" y="18" width="9" height="18" fill="#0f0f1a"/>
    </g>
    <g class="cell" data-x="32" data-y="1">
      <rect class="cell-bg" x="288" y="18" width="9" height="18" fill="#0f0f1a"/>
    </g>
    <g class="cell" data-x="33" data-y="1">
      <rect class="cell-bg" x="297" y="18" width="9" height="18" fill="#0f0f1a"/>
    </g>
    <g class="cell" data-x="34" data-y="1">
      <rect class="cell-bg" x="306" y="18" width="9" height="18" fill="#0f0f1a"/>
    </g>
    <g class="cell" data-x="35" data-y="1">
      <rect class="cell-bg" x="315" y="18" width="9" height="18" fill="#0f0f1a"/>
    </g>
    <g class="cell" data-x="36" data-y="1">
      <rect class="cell-bg" x="324" y="18" width="9" height="18" fill="#0f0f1a"/>
    </g>
    <g class="cell" data-x="37" data-y="1">
      <rect class="cell-bg" x="333" y="18" width="9" height="18" fill="#0f0f1a"/>
    </g>
    <g class="cell" data-x="38" data-y="1">
      <rect class="cell-bg" x="342" y="18" width="9" height="18" fill="#0f0f1a"/>
    </g>
    <g class="cell" data-x="39" data-y="1">
      <rect class="cell-bg" x="351" y="18" width="9" height="18" fill="#0f0f1a"/>
    </g>
    <g class="cell" data-x="40" data-y="1">
      <rect class="cell-bg" x="360" y="18" width="9" height="18" fill="#0f0f1a"/>
    </g>
    <g class="cell" data-x="41" data-y="1">
      <rect class="cell-bg" x="369" y="18" width="9" height="18" fill="#0f0f1a"/>
    </g>
    <g class="cell" data-x="42" data-y="1">
      <rect class="cell-bg" x="378" y="18" width="9" height="18" fill="#0f0f1a"/>
    </g>
    <g class="cell" data-x="43" data-y="1">
      <rect class="cell-bg" x="387" y="18" width="9" height="18" fill="#0f0f1a"/>
    </g>
    <g class="cell" data-x="44" data-y="1">
      <rect class="cell-bg" x="396" y="18" width="9" height="18" fill="#0f0f1a"/>
    </g>
    <g class="cell" data-x="45" data-y="1">
      <rect class="cell-bg" x="405" y="18" width="9" height="18" fill="#0f0f1a"/>
    </g>
    <g class="cell" data-x="46" data-y="1">
      <rect class="cell-bg" x="414" y="18" width="9" height="18" fill="#0f0f1a"/>
    </g>
    <g class="cell" data-x="47" data-y="1">
      <rect class="cell-bg" x="423" y="18" width="9" height="18" fill="#0f0f1a"/>
    </g>
    <g class="cell" data-x="48" data-y="1">
      <rect class="cell-bg" x="432" y="18" width="9" height="18" fill="#0f0f1a"/>
    </g>
    <g class="cell" data-x="49" data-y="1">
      <rect class="cell-bg" x="441" y="18" width="9" height="18" fill="#0f0f1a"/>
    </g>
    <g class="cell" data-x="50" data-y="1">
      <rect class="cell-bg" x="450" y="18" width="9" height="18" fill="#0f0f1a"/>
    </g>
    <g class="cell" data-x="13" data-y="2">
      <rect class="cell-bg" x="117" y="36" width="9" height="18" fill="#0f0f1a"/>
    </g>
    <g class="cell" data-x="31" data-y="1">
      <rect class="cell-bg" x="279" y="18" width="9" height="18" fill="#0f0f1a"/>
    </g>
    <g class="cell" data-x="14" data-y="2">
      <rect class="cell-bg" x="126" y="36" width="9" height="18" fill="#0f0f1a"/>
    </g>
    <g class="cell" data-x="16" data-y="2">
      <rect class="cell-bg" x="144" y="36" width="9" height="18" fill="#0f0f1a"/>
    </g>
    <g class="cell" data-x="40" data-y="2">
      <rect class="cell-bg" x="360" y="36" width="9" height="18" fill="#0f0f1a"/>
    </g>
    <g class="cell" data-x="41" data-y="2">
      <rect class="cell-bg" x="369" y="36" width="9" height="18" fill="#0f0f1a"/>
    </g>
    <g class="cell" data-x="42" data-y="2">
      <rect class="cell-bg" x="378" y="36" width="9" height="18" fill="#0f0f1a"/>
    </g>
    <g class="cell" data-x="43" data-y="2">
      <rect class="cell-bg" x="387" y="36" width="9" height="18" fill="#0f0f1a"/>
    </g>
    <g class="cell" data-x="44" data-y="2">
      <rect class="cell-bg" x="396" y="36" width="9" height="18" fill="#0f0f1a"/>
    </g>
    <g class="cell" data-x="45" data-y="2">
      <rect class="cell-bg" x="405" y="36" width="9" height="18" fill="#0f0f1a"/>
    </g>
    <g class="cell" data-x="46" data-y="2">
      <rect class="cell-bg" x="414" y="36" width="9" height="18" fill="#0f0f1a"/>
    </g>
    <g class="cell" data-x="47" data-y="2">
      <rect class="cell-bg" x="423" y="36" width="9" height="18" fill="#0f0f1a"/>
    </g>
    <g class="cell" data-x="39" data-y="2">
      <rect class="cell-bg" x="351" y="36" width="9" height="18" fill="#0f0f1a"/>
    </g>
    <g class="cell" data-x="48" data-y="2">
      <rect class="cell-bg" x="432" y="36" width="9" height="18" fill="#0f0f1a"/>
    </g>
    <g class="cell" data-x="50" data-y="2">
      <rect class="cell-bg" x="450" y="36" width="9" height="18" fill="#0f0f1a"/>
    </g>
    <g class="cell" data-x="51" data-y="2">
      <rect class="cell-bg" x="459" y="36" width="9" height="18" fill="#0f0f1a"/>
    </g>
    <g class="cell" data-x="52" data-y="2">
      <rect class="cell-bg" x="468" y="36" width="9" height="18" fill="#0f0f1a"/>
    </g>
    <g class="cell" data-x="53" data-y="2">
      <rect class="cell-bg" x="477" y="36" width="9" height="18" fill="#0f0f1a"/>
    </g>
    <g class="cell" data-x="54" data-y="2">
      <rect class="cell-bg" x="486" y="36" width="9" height="18" fill="#0f0f1a"/>
    </g>
    <g class="cell" data-x="55" data-y="2">
      <rect class="cell-bg" x="495" y="36" width="9" height="18" fill="#0f0f1a"/>
    </g>
    <g class="cell" data-x="56" data-y="2">
      <rect class="cell-bg" x="504" y="36" width="9" height="18" fill="#0f0f1a"/>
    </g>
    <g class="cell" data-x="57" data-y="2">
      <rect class="cell-bg" x="513" y="36" width="9" height="18" fill="#0f0f1a"/>
    </g>
    <g class="cell" data-x="49" data-y="2">
      <rect class="cell-bg" x="441" y="36" width="9" height="18" fill="#0f0f1a"/>
    </g>
    <g class="cell" data-x="38" data-y="2">
      <rect class="cell-bg" x="342" y="36" width="9" height="18" fill="#0f0f1a"/>
    </g>
    <g class="cell" data-x="37" data-y="2">
      <rect class="cell-bg" x="333" y="36" width="9" height="18" fill="#0f0f1a"/>
    </g>
    <g class="cell" data-x="36" data-y="2">
      <rect class="cell-bg" x="324" y="36" width="9" height="18" fill="#0f0f1a"/>
    </g>
    <g class="cell" data-x="17" data-y="2">
      <rect class="cell-bg" x="153" y="36" width="9" height="18" fill="#0f0f1a"/>
    </g>
    <g class="cell" data-x="18" data-y="2">
      <rect class="cell-bg" x="162" y="36" width="9" height="18" fill="#0f0f1a"/>
    </g>
    <g class="cell" data-x="19" data-y="2">
      <rect class="cell-bg" x="171" y="36" width="9" height="18" fill="#0f0f1a"/>
    </g>
    <g class="cell" data-x="20" data-y="2">
      <rect class="cell-bg" x="180" y="36" width="9" height="18" fill="#0f0f1a"/>
    </g>
    <g class="cell" data-x="21" data-y="2">
      <rect class="cell-bg" x="189" y="36" width="9" height="18" fill="#0f0f1a"/>
    </g>
    <g class="cell" data-x="22" data-y="2">
      <rect class="cell-bg" x="198" y="36" width="9" height="18" fill="#0f0f1a"/>
    </g>
    <g class="cell" data-x="23" data-y="2">
      <rect class="cell-bg" x="207" y="36" width="9" height="18" fill="#0f0f1a"/>
    </g>
    <g class="cell" data-x="24" data-y="2">
      <rect class="cell-bg" x="216" y="36" width="9" height="18" fill="#0f0f1a"/>
    </g>
    <g class="cell" data-x="25" data-y="2">
      <rect class="cell-bg" x="225" y="36" width="9" height="18" fill="#0f0f1a"/>
    </g>
    <g class="cell" data-x="26" data-y="2">
      <rect class="cell-bg" x="234" y="36" width="9" height="18" fill="#0f0f1a"/>
    </g>
    <g class="cell" data-x="27" data-y="2">
      <rect class="cell-bg" x="243" y="36" width="9" height="18" fill="#0f0f1a"/>
    </g>
    <g class="cell" data-x="28" data-y="2">
      <rect class="cell-bg" x="252" y="36" width="9" height="18" fill="#0f0f1a"/>
    </g>
    <g class="cell" data-x="29" data-y="2">
      <rect class="cell-bg" x="261" y="36" width="9" height="18" fill="#0f0f1a"/>
    </g>
    <g class="cell" data-x="30" data-y="2">
      <rect class="cell-bg" x="270" y="36" width="9" height="18" fill="#0f0f1a"/>
    </g>
    <g class="cell" data-x="31" data-y="2">
      <rect class="cell-bg" x="279" y="36" width="9" height="18" fill="#0f0f1a"/>
    </g>
    <g class="cell" data-x="32" data-y="2">
      <rect class="cell-bg" x="288" y="36" width="9" height="18" fill="#0f0f1a"/>
    </g>
    <g class="cell" data-x="33" data-y="2">
      <rect class="cell-bg" x="297" y="36" width="9" height="18" fill="#0f0f1a"/>
    </g>
    <g class="cell" data-x="34" data-y="2">
      <rect class="cell-bg" x="306" y="36" width="9" height="18" fill="#0f0f1a"/>
    </g>
    <g class="cell" data-x="35" data-y="2">
      <rect class="cell-bg" x="315" y="36" width="9" height="18" fill="#0f0f1a"/>
    </g>
    <g class="cell" data-x="15" data-y="2">
      <rect class="cell-bg" x="135" y="36" width="9" height="18" fill="#0f0f1a"/>
    </g>
    <g class="cell" data-x="30" data-y="1">
      <rect class="cell-bg" x="270" y="18" width="9" height="18" fill="#0f0f1a"/>
    </g>
    <g class="cell" data-x="59" data-y="2">
      <rect class="cell-bg" x="531" y="36" width="9" height="18" fill="#0f0f1a"/>
    </g>
    <g class="cell" data-x="28" data-y="1">
      <rect class="cell-bg" x="252" y="18" width="9" height="18" fill="#0f0f1a"/>
    </g>
    <g class="cell" data-x="45" data-y="0">
      <rect class="cell-bg" x="405" y="0" width="9" height="18" fill="#0f0f1a"/>
    </g>
    <g class="cell" data-x="58" data-y="2">
      <rect class="cell-bg" x="522" y="36" width="9" height="18" fill="#0f0f1a"/>
    </g>
    <g class="cell" data-x="43" data-y="0">
      <rect class="cell-bg" x="387" y="0" width="9" height="18" fill="#0f0f1a"/>
    </g>
    <g class="cell" data-x="42" data-y="0">
      <rect class="cell-bg" x="378" y="0" width="9" height="18" fill="#0f0f1a"/>
    </g>
    <g class="cell" data-x="41" data-y="0">
      <rect class="cell-bg" x="369" y="0" width="9" height="18" fill="#0f0f1a"/>
    </g>
    <g class="cell" data-x="40" data-y="0">
      <rect class="cell-bg" x="360" y="0" width="9" height="18" fill="#0f0f1a"/>
    </g>
    <g class="cell" data-x="39" data-y="0">
      <rect class="cell-bg" x="351" y="0" width="9" height="18" fill="#0f0f1a"/>
    </g>
    <g class="cell" data-x="38" data-y="0">
      <rect class="cell-bg" x="342" y="0" width="9" height="18" fill="#0f0f1a"/>
    </g>
    <g class="cell" data-x="37" data-y="0">
      <rect class="cell-bg" x="333" y="0" width="9" height="18" fill="#0f0f1a"/>
    </g>
    <g class="cell" data-x="36" data-y="0">
      <rect class="cell-bg" x="324" y="0" width="9" height="18" fill="#0f0f1a"/>
    </g>
    <g class="cell" data-x="35" data-y="0">
      <rect class="cell-bg" x="315" y="0" width="9" height="18" fill="#0f0f1a"/>
    </g>
    <g class="cell" data-x="34" data-y="0">
      <rect class="cell-bg" x="306" y="0" width="9" height="18" fill="#0f0f1a"/>
    </g>
    <g class="cell" data-x="33" data-y="0">
      <rect class="cell-bg" x="297" y="0" width="9" height="18" fill="#0f0f1a"/>
    </g>
    <g class="cell" data-x="32" data-y="0">
      <rect class="cell-bg" x="288" y="0" width="9" height="18" fill="#0f0f1a"/>
    </g>
    <g class="cell" data-x="31" data-y="0">
      <rect class="cell-bg" x="279" y="0" width="9" height="18" fill="#0f0f1a"/>
    </g>
    <g class="cell" data-x="30" data-y="0">
      <rect class="cell-bg" x="270" y="0" width="9" height="18" fill="#0f0f1a"/>
    </g>
    <g class="cell" data-x="29" data-y="0">
      <rect class="cell-bg" x="261" y="0" width="9" height="18" fill="#0f0f1a"/>
    </g>
    <g class="cell" data-x="28" data-y="0">
      <rect class="cell-bg" x="252" y="0" width="9" height="18" fill="#0f0f1a"/>
    </g>
    <g class="cell" data-x="27" data-y="0">
      <rect class="cell-bg" x="243" y="0" width="9" height="18" fill="#0f0f1a"/>
    </g>
    <g class="cell" data-x="26" data-y="0">
      <rect class="cell-bg" x="234" y="0" width="9" height="18" fill="#0f0f1a"/>
    </g>
    <g class="cell" data-x="25" data-y="0">
      <rect class="cell-bg" x="225" y="0" width="9" height="18" fill="#0f0f1a"/>
    </g>
    <g class="cell" data-x="24" data-y="0">
      <rect class="cell-bg" x="216" y="0" width="9" height="18" fill="#0f0f1a"/>
    </g>
    <g class="cell" data-x="23" data-y="0">
      <rect class="cell-bg" x="207" y="0" width="9" height="18" fill="#0f0f1a"/>
    </g>
    <g class="cell" data-x="22" data-y="0">
      <rect class="cell-bg" x="198" y="0" width="9" height="18" fill="#0f0f1a"/>
    </g>
    <g class="cell" data-x="21" data-y="0">
      <rect class="cell-bg" x="189" y="0" width="9" height="18" fill="#0f0f1a"/>
    </g>
    <g class="cell" data-x="20" data-y="0">
      <rect class="cell-bg" x="180" y="0" width="9" height="18" fill="#0f0f1a"/>
    </g>
    <g class="cell" data-x="11" data-y="0">
      <rect class="cell-bg" x="99" y="0" width="9" height="18" fill="#0f0f1a"/>
    </g>
    <g class="cell" data-x="10" data-y="0">
      <rect class="cell-bg" x="90" y="0" width="9" height="18" fill="#0f0f1a"/>
    </g>
    <g class="cell" data-x="9" data-y="0">
      <rect class="cell-bg" x="81" y="0" width="9" height="18" fill="#0f0f1a"/>
    </g>
    <g class="cell" data-x="46" data-y="0">
      <rect class="cell-bg" x="414" y="0" width="9" height="18" fill="#0f0f1a"/>
    </g>
    <g class="cell" data-x="47" data-y="0">
      <rect class="cell-bg" x="423" y="0" width="9" height="18" fill="#0f0f1a"/>
    </g>
    <g class="cell" data-x="44" data-y="0">
      <rect class="cell-bg" x="396" y="0" width="9" height="18" fill="#0f0f1a"/>
    </g>
    <g class="cell" data-x="17" data-y="1">
      <rect class="cell-bg" x="153" y="18" width="9" height="18" fill="#0f0f1a"/>
    </g>
    <g class="cell" data-x="20" data-y="1">
      <rect class="cell-bg" x="180" y="18" width="9" height="18" fill="#0f0f1a"/>
    </g>
    <g class="cell" data-x="16" data-y="1">
      <rect class="cell-bg" x="144" y="18" width="9" height="18" fill="#0f0f1a"/>
    </g>
    <g class="cell" data-x="15" data-y="1">
      <rect class="cell-bg" x="135" y="18" width="9" height="18" fill="#0f0f1a"/>
    </g>
    <g class="cell" data-x="14" data-y="1">
      <rect class="cell-bg" x="126" y="18" width="9" height="18" fill="#0f0f1a"/>
    </g>
    <g class="cell" data-x="13" data-y="1">
      <rect class="cell-bg" x="117" y="18" width="9" height="18" fill="#0f0f1a"/>
    </g>
    <g class="cell" data-x="12" data-y="1">
      <rect class="cell-bg" x="108" y="18" width="9" height="18" fill="#0f0f1a"/>
    </g>
    <g class="cell" data-x="11" data-y="1">
      <rect class="cell-bg" x="99" y="18" width="9" height="18" fill="#0f0f1a"/>
    </g>
    <g class="cell" data-x="10" data-y="1">
      <rect class="cell-bg" x="90" y="18" width="9" height="18" fill="#0f0f1a"/>
    </g>
    <g class="cell" data-x="9" data-y="1">
      <rect class="cell-bg" x="81" y="18" width="9" height="18" fill="#0f0f1a"/>
    </g>
    <g class="cell" data-x="8" data-y="1">
      <rect class="cell-bg" x="72" y="18" width="9" height="18" fill="#0f0f1a"/>
    </g>
    <g class="cell" data-x="7" data-y="1">
      <rect class="cell-bg" x="63" y="18" width="9" height="18" fill="#0f0f1a"/>
    </g>
    <g class="cell" data-x="6" data-y="1">
      <rect class="cell-bg" x="54" y="18" width="9" height="18" fill="#0f0f1a"/>
    </g>
    <g class="cell" data-x="5" data-y="1">
      <rect class="cell-bg" x="45" y="18" width="9" height="18" fill="#0f0f1a"/>
    </g>
    <g class="cell" data-x="18" data-y="1">
      <rect class="cell-bg" x="162" y="18" width="9" height="18" fill="#0f0f1a"/>
    </g>
    <g class="cell" data-x="4" data-y="1">
      <rect class="cell-bg" x="36" y="18" width="9" height="18" fill="#0f0f1a"/>
    </g>
    <g class="cell" data-x="2" data-y="1">
      <rect class="cell-bg" x="18" y="18" width="9" height="18" fill="#0f0f1a"/>
    </g>
    <g class="cell" data-x="1" data-y="1">
      <rect class="cell-bg" x="9" y="18" width="9" height="18" fill="#0f0f1a"/>
    </g>
    <g class="cell" data-x="0" data-y="1">
      <rect class="cell-bg" x="0" y="18" width="9" height="18" fill="#0f0f1a"/>
    </g>
    <g class="cell" data-x="59" data-y="0">
      <rect class="cell-bg" x="531" y="0" width="9" height="18" fill="#0f0f1a"/>
    </g>
    <g class="cell" data-x="58" data-y="0">
      <rect class="cell-bg" x="522" y="0" width="9" height="18" fill="#0f0f1a"/>
    </g>
    <g class="cell" data-x="57" data-y="0">
      <rect class="cell-bg" x="513" y="0" width="9" height="18" fill="#0f0f1a"/>
    </g>
    <g class="cell" data-x="21" data-y="1">
      <rect class="cell-bg" x="189" y="18" width="9" height="18" fill="#0f0f1a"/>
    </g>
    <g class="cell" data-x="22" data-y="1">
      <rect class="cell-bg" x="198" y="18" width="9" height="18" fill="#0f0f1a"/>
    </g>
    <g class="cell" data-x="23" data-y="1">
      <rect class="cell-bg" x="207" y="18" width="9" height="18" fill="#0f0f1a"/>
    </g>
    <g class="cell" data-x="24" data-y="1">
      <rect class="cell-bg" x="216" y="18" width="9" height="18" fill="#0f0f1a"/>
    </g>
    <g class="cell" data-x="25" data-y="1">
      <rect class="cell-bg" x="225" y="18" width="9" height="18" fill="#0f0f1a"/>
    </g>
    <g class="cell" data-x="26" data-y="1">
      <rect class="cell-bg" x="234" y="18" width="9" height="18" fill="#0f0f1a"/>
    </g>
    <g class="cell" data-x="27" data-y="1">
      <rect class="cell-bg" x="243" y="18" width="9" height="18" fill="#0f0f1a"/>
    </g>
    <g class="cell" data-x="3" data-y="1">
      <rect class="cell-bg" x="27" y="18" width="9" height="18" fill="#0f0f1a"/>
    </g>
    <g class="cell" data-x="19" data-y="1">
      <rect class="cell-bg" x="171" y="18" width="9" height="18" fill="#0f0f1a"/>
    </g>
    <g class="cell" data-x="0" data-y="0">
      <rect class="cell-bg" x="0" y="0" width="9" height="18" fill="#0f0f1a"/>
      <text x="0.0" y="13.5" fill="#e0e0e0" text-anchor="start">A</text>
    </g>
    <g class="cell" data-x="1" data-y="0">
      <rect class="cell-bg" x="9" y="0" width="9" height="18" fill="#0f0f1a"/>
    </g>
    <g class="cell" data-x="2" data-y="0">
      <rect class="cell-bg" x="18" y="0" width="9" height="18" fill="#0f0f1a"/>
      <text x="18.0" y="13.5" fill="#e0e0e0" text-anchor="start">(</text>
    </g>
    <g class="cell" data-x="3" data-y="0">
      <rect class="cell-bg" x="27" y="0" width="9" height="18" fill="#0f0f1a"/>
      <text x="27.0" y="13.5" fill="#e0e0e0" text-anchor="start">f</text>
    </g>
    <g class="cell" data-x="4" data-y="0">
      <rect class="cell-bg" x="36" y="0" width="9" height="18" fill="#0f0f1a"/>
      <text x="36.0" y="13.5" fill="#e0e0e0" text-anchor="start">i</text>
    </g>
    <g class="cell" data-x="5" data-y="0">
      <rect class="cell-bg" x="45" y="0" width="9" height="18" fill="#0f0f1a"/>
      <text x="45.0" y="13.5" fill="#e0e0e0" text-anchor="start">x</text>
    </g>
    <g class="cell" data-x="6" data-y="0">
      <rect class="cell-bg" x="54" y="0" width="9" height="18" fill="#0f0f1a"/>
      <text x="54.0" y="13.5" fill="#e0e0e0" text-anchor="start">e</text>
    </g>
    <g class="cell" data-x="7" data-y="0">
      <rect class="cell-bg" x="63" y="0" width="9" height="18" fill="#0f0f1a"/>
      <text x="63.0" y="13.5" fill="#e0e0e0" text-anchor="start">d</text>
    </g>
    <g class="cell" data-x="8" data-y="0">
      <rect class="cell-bg" x="72" y="0" width="9" height="18" fill="#0f0f1a"/>
      <text x="72.0" y="13.5" fill="#e0e0e0" text-anchor="start">)</text>
    </g>
    <g class="cell" data-x="12" data-y="0">
      <rect class="cell-bg" x="108" y="0" width="9" height="18" fill="#0f0f1a"/>
      <text x="108.0" y="13.5" fill="#e0e0e0" text-anchor="start">B</text>
    </g>
    <g class="cell" data-x="13" data-y="0">
      <rect class="cell-bg" x="117" y="0" width="9" height="18" fill="#0f0f1a"/>
    </g>
    <g class="cell" data-x="14" data-y="0">
      <rect class="cell-bg" x="126" y="0" width="9" height="18" fill="#0f0f1a"/>
      <text x="126.0" y="13.5" fill="#e0e0e0" text-anchor="start">(</text>
    </g>
    <g class="cell" data-x="15" data-y="0">
      <rect class="cell-bg" x="135" y="0" width="9" height="18" fill="#0f0f1a"/>
      <text x="135.0" y="13.5" fill="#e0e0e0" text-anchor="start">f</text>
    </g>
    <g class="cell" data-x="16" data-y="0">
      <rect class="cell-bg" x="144" y="0" width="9" height="18" fill="#0f0f1a"/>
      <text x="144.0" y="13.5" fill="#e0e0e0" text-anchor="start">i</text>
    </g>
    <g class="cell" data-x="17" data-y="0">
      <rect class="cell-bg" x="153" y="0" width="9" height="18" fill="#0f0f1a"/>
      <text x="153.0" y="13.5" fill="#e0e0e0" text-anchor="start">l</text>
    </g>
    <g class="cell" data-x="18" data-y="0">
      <rect class="cell-bg" x="162" y="0" width="9" height="18" fill="#0f0f1a"/>
      <text x="162.0" y="13.5" fill="#e0e0e0" text-anchor="start">l</text>
    </g>
    <g class="cell" data-x="19" data-y="0">
      <rect class="cell-bg" x="171" y="0" width="9" height="18" fill="#0f0f1a"/>
      <text x="171.0" y="13.5" fill="#e0e0e0" text-anchor="start">)</text>
    </g>
    <g class="cell" data-x="48" data-y="0">
      <rect class="cell-bg" x="432" y="0" width="9" height="18" fill="#0f0f1a"/>
      <text x="432.0" y="13.5" fill="#e0e0e0" text-anchor="start">C</text>
    </g>
    <g class="cell" data-x="49" data-y="0">
      <rect class="cell-bg" x="441" y="0" width="9" height="18" fill="#0f0f1a"/>
    </g>
    <g class="cell" data-x="50" data-y="0">
      <rect class="cell-bg" x="450" y="0" width="9" height="18" fill="#0f0f1a"/>
      <text x="450.0" y="13.5" fill="#e0e0e0" text-anchor="start">(</text>
    </g>
    <g class="cell" data-x="51" data-y="0">
      <rect class="cell-bg" x="459" y="0" width="9" height="18" fill="#0f0f1a"/>
      <text x="459.0" y="13.5" fill="#e0e0e0" text-anchor="start">f</text>
    </g>
    <g class="cell" data-x="52" data-y="0">
      <rect class="cell-bg" x="468" y="0" width="9" height="18" fill="#0f0f1a"/>
      <text x="468.0" y="13.5" fill="#e0e0e0" text-anchor="start">i</text>
    </g>
    <g class="cell" data-x="53" data-y="0">
      <rect class="cell-bg" x="477" y="0" width="9" height="18" fill="#0f0f1a"/>
      <text x="477.0" y="13.5" fill="#e0e0e0" text-anchor="start">x</text>
    </g>
    <g class="cell" data-x="54" data-y="0">
      <rect class="cell-bg" x="486" y="0" width="9" height="18" fill="#0f0f1a"/>
      <text x="486.0" y="13.5" fill="#e0e0e0" text-anchor="start">e</text>
    </g>
    <g class="cell" data-x="55" data-y="0">
      <rect class="cell-bg" x="495" y="0" width="9" height="18" fill="#0f0f1a"/>
      <text x="495.0" y="13.5" fill="#e0e0e0" text-anchor="start">d</text>
    </g>
    <g class="cell" data-x="56" data-y="0">
      <rect class="cell-bg" x="504" y="0" width="9" height="18" fill="#0f0f1a"/>
      <text x="504.0" y="13.5" fill="#e0e0e0" text-anchor="start">)</text>
    </g>
  </g>
  <g class="cell-grid">
    <line x1="9" y1="0" x2="9" y2="54"/>
    <line x1="18" y1="0" x2="18" y2="54"/>
    <line x1="27" y1="0" x2="27" y2="54"/>
    <line x1="36" y1="0" x2="36" y2="54"/>
    <line x1="45" y1="0" x2="45" y2="54"/>
    <line x1="54" y1="0" x2="54" y2="54"/>
    <line x1="63" y1="0" x2="63" y2="54"/>
    <line x1="72" y1="0" x2="72" y2="54"/>
    <line x1="81" y1="0" x2="81" y2="54"/>
    <line x1="90" y1="0" x2="90" y2="54"/>
    <line x1="99" y1="0" x2="99" y2="54"/>
    <line x1="108" y1="0" x2="108" y2="54"/>
    <line x1="117" y1="0" x2="117" y2="54"/>
    <line x1="126" y1="0" x2="126" y2="54"/>
    <line x1="135" y1="0" x2="135" y2="54"/>
    <line x1="144" y1="0" x2="144" y2="54"/>
    <line x1="153" y1="0" x2="153" y2="54"/>
    <line x1="162" y1="0" x2="162" y2="54"/>
    <line x1="171" y1="0" x2="171" y2="54"/>
    <line x1="180" y1="0" x2="180" y2="54"/>
    <line x1="189" y1="0" x2="189" y2="54"/>
    <line x1="198" y1="0" x2="198" y2="54"/>
    <line x1="207" y1="0" x2="207" y2="54"/>
    <line x1="216" y1="0" x2="216" y2="54"/>
    <line x1="225" y1="0" x2="225" y2="54"/>
    <line x1="234" y1="0" x2="234" y2="54"/>
    <line x1="243" y1="0" x2="243" y2="54"/>
    <line x1="252" y1="0" x2="252" y2="54"/>
    <line x1="261" y1="0" x2="261" y2="54"/>
    <line x1="270" y1="0" x2="270" y2="54"/>
    <line x1="279" y1="0" x2="279" y2="54"/>
    <line x1="288" y1="0" x2="288" y2="54"/>
    <line x1="297" y1="0" x2="297" y2="54"/>
    <line x1="306" y1="0" x2="306" y2="54"/>
    <line x1="315" y1="0" x2="315" y2="54"/>
    <line x1="324" y1="0" x2="324" y2="54"/>
    <line x1="333" y1="0" x2="333" y2="54"/>
    <line x1="342" y1="0" x2="342" y2="54"/>
    <line x1="351" y1="0" x2="351" y2="54"/>
    <line x1="360" y1="0" x2="360" y2="54"/>
    <line x1="369" y1="0" x2="369" y2="54"/>
    <line x1="378" y1="0" x2="378" y2="54"/>
    <line x1="387" y1="0" x2="387" y2="54"/>
    <line x1="396" y1="0" x2="396" y2="54"/>
    <line x1="405" y1="0" x2="405" y2="54"/>
    <line x1="414" y1="0" x2="414" y2="54"/>
    <line x1="423" y1="0" x2="423" y2="54"/>
    <line x1="432" y1="0" x2="432" y2="54"/>
    <line x1="441" y1="0" x2="441" y2="54"/>
    <line x1="450" y1="0" x2="450" y2="54"/>
    <line x1="459" y1="0" x2="459" y2="54"/>
    <line x1="468" y1="0" x2="468" y2="54"/>
    <line x1="477" y1="0" x2="477" y2="54"/>
    <line x1="486" y1="0" x2="486" y2="54"/>
    <line x1="495" y1="0" x2="495" y2="54"/>
    <line x1="504" y1="0" x2="504" y2="54"/>
    <line x1="513" y1="0" x2="513" y2="54"/>
    <line x1="522" y1="0" x2="522" y2="54"/>
    <line x1="531" y1="0" x2="531" y2="54"/>
    <line x1="0" y1="18" x2="540" y2="18"/>
    <line x1="0" y1="36" x2="540" y2="36"/>
  </g>
</svg>
